<svg xmlns="http://www.w3.org/2000/svg" viewBox="0 0 50.65 36.74"><defs><style>.cls-1{fill:#1d262d;}</style></defs><g id="Layer_2" data-name="Layer 2"><g id="OBJECTS"><path class="cls-1" d="M5.19,0h0A5.18,5.18,0,0,0,1.76,9.06l6.15,5.43a5.18,5.18,0,0,1,0,7.77L1.76,27.68a5.18,5.18,0,0,0,3.43,9.06h0a5.22,5.22,0,0,0,3.43-1.29l15-13.19a5.18,5.18,0,0,0,0-7.77L8.62,1.3A5.18,5.18,0,0,0,5.19,0Z"/><path class="cls-1" d="M30.52,0h0a5.18,5.18,0,0,0-3.43,9.06l6.15,5.43a5.19,5.19,0,0,1,0,7.77l-6.15,5.42a5.18,5.18,0,0,0,3.43,9.06h0a5.17,5.17,0,0,0,3.42-1.29l15-13.19a5.18,5.18,0,0,0,0-7.77L33.94,1.3A5.13,5.13,0,0,0,30.52,0Z"/></g></g></svg>